<mxfile host="app.diagrams.net" modified="2023-04-18T16:40:23.686Z" agent="Mozilla/5.0 (Windows NT 10.0; Win64; x64) AppleWebKit/537.36 (KHTML, like Gecko) Chrome/112.0.0.0 Safari/537.36" etag="nV945xTe2fS54xkWxb3S" version="21.1.8" type="device">
  <diagram id="ql5Kk59QJ9DEcHVxNvi2" name="Page-1">
    <mxGraphModel dx="1195" dy="630" grid="1" gridSize="10" guides="1" tooltips="1" connect="1" arrows="1" fold="1" page="1" pageScale="1" pageWidth="827" pageHeight="1169" math="0" shadow="0">
      <root>
        <mxCell id="0" />
        <mxCell id="1" parent="0" />
        <mxCell id="YUoRcWpAGlaLDNLX_Gaq-1" value="" style="ellipse;html=1;shape=startState;fillColor=#000000;strokeColor=#ff0000;" vertex="1" parent="1">
          <mxGeometry x="393" y="72.5" width="30" height="30" as="geometry" />
        </mxCell>
        <mxCell id="YUoRcWpAGlaLDNLX_Gaq-2" value="" style="edgeStyle=orthogonalEdgeStyle;html=1;verticalAlign=bottom;endArrow=open;endSize=8;strokeColor=#ff0000;rounded=0;entryX=1.1;entryY=0.503;entryDx=0;entryDy=0;entryPerimeter=0;" edge="1" parent="1" source="YUoRcWpAGlaLDNLX_Gaq-1" target="YUoRcWpAGlaLDNLX_Gaq-4">
          <mxGeometry relative="1" as="geometry">
            <mxPoint x="408" y="172.5" as="targetPoint" />
            <Array as="points">
              <mxPoint x="409" y="122.5" />
              <mxPoint x="409" y="122.5" />
            </Array>
          </mxGeometry>
        </mxCell>
        <mxCell id="YUoRcWpAGlaLDNLX_Gaq-3" value="Osservazione telecamere di sicurezza" style="rounded=1;whiteSpace=wrap;html=1;" vertex="1" parent="1">
          <mxGeometry x="348" y="392.5" width="120" height="60" as="geometry" />
        </mxCell>
        <mxCell id="YUoRcWpAGlaLDNLX_Gaq-4" value="" style="html=1;points=[];perimeter=orthogonalPerimeter;fillColor=#000000;strokeColor=none;rotation=-90;fontStyle=1" vertex="1" parent="1">
          <mxGeometry x="405" y="-80" width="5" height="505" as="geometry" />
        </mxCell>
        <mxCell id="YUoRcWpAGlaLDNLX_Gaq-5" value="" style="edgeStyle=orthogonalEdgeStyle;html=1;verticalAlign=bottom;endArrow=open;endSize=8;strokeColor=#ff0000;rounded=0;" edge="1" parent="1">
          <mxGeometry relative="1" as="geometry">
            <mxPoint x="184" y="232.5" as="targetPoint" />
            <mxPoint x="184" y="172.5" as="sourcePoint" />
          </mxGeometry>
        </mxCell>
        <mxCell id="YUoRcWpAGlaLDNLX_Gaq-6" value="" style="edgeStyle=orthogonalEdgeStyle;html=1;verticalAlign=bottom;endArrow=open;endSize=8;strokeColor=#ff0000;rounded=0;entryX=0.5;entryY=0;entryDx=0;entryDy=0;" edge="1" parent="1" target="YUoRcWpAGlaLDNLX_Gaq-12">
          <mxGeometry relative="1" as="geometry">
            <mxPoint x="407" y="242.5" as="targetPoint" />
            <mxPoint x="407" y="172.5" as="sourcePoint" />
          </mxGeometry>
        </mxCell>
        <mxCell id="YUoRcWpAGlaLDNLX_Gaq-7" value="" style="edgeStyle=orthogonalEdgeStyle;html=1;verticalAlign=bottom;endArrow=open;endSize=8;strokeColor=#ff0000;rounded=0;entryX=0.5;entryY=0;entryDx=0;entryDy=0;" edge="1" parent="1">
          <mxGeometry relative="1" as="geometry">
            <mxPoint x="631.5" y="242.5" as="targetPoint" />
            <mxPoint x="631.5" y="172.5" as="sourcePoint" />
          </mxGeometry>
        </mxCell>
        <mxCell id="YUoRcWpAGlaLDNLX_Gaq-8" value="Ronda interna" style="rounded=1;whiteSpace=wrap;html=1;" vertex="1" parent="1">
          <mxGeometry x="54" y="282.5" width="120" height="60" as="geometry" />
        </mxCell>
        <mxCell id="YUoRcWpAGlaLDNLX_Gaq-10" value="" style="edgeStyle=orthogonalEdgeStyle;html=1;verticalAlign=bottom;endArrow=open;endSize=8;strokeColor=#ff0000;rounded=0;entryX=0.5;entryY=0;entryDx=0;entryDy=0;" edge="1" parent="1">
          <mxGeometry relative="1" as="geometry">
            <mxPoint x="407" y="522.5" as="targetPoint" />
            <mxPoint x="407" y="452.5" as="sourcePoint" />
          </mxGeometry>
        </mxCell>
        <mxCell id="YUoRcWpAGlaLDNLX_Gaq-11" value="" style="rhombus;whiteSpace=wrap;html=1;" vertex="1" parent="1">
          <mxGeometry x="368" y="522.5" width="80" height="80" as="geometry" />
        </mxCell>
        <mxCell id="YUoRcWpAGlaLDNLX_Gaq-12" value="" style="rhombus;whiteSpace=wrap;html=1;" vertex="1" parent="1">
          <mxGeometry x="367.5" y="242.5" width="80" height="80" as="geometry" />
        </mxCell>
        <mxCell id="YUoRcWpAGlaLDNLX_Gaq-13" value="" style="edgeStyle=orthogonalEdgeStyle;html=1;verticalAlign=bottom;endArrow=open;endSize=8;strokeColor=#ff0000;rounded=0;" edge="1" parent="1">
          <mxGeometry relative="1" as="geometry">
            <mxPoint x="408" y="392.5" as="targetPoint" />
            <mxPoint x="408" y="322.5" as="sourcePoint" />
          </mxGeometry>
        </mxCell>
        <mxCell id="YUoRcWpAGlaLDNLX_Gaq-14" value="" style="edgeStyle=orthogonalEdgeStyle;html=1;verticalAlign=bottom;endArrow=open;endSize=8;strokeColor=#ff0000;rounded=0;" edge="1" parent="1">
          <mxGeometry relative="1" as="geometry">
            <mxPoint x="408" y="702.5" as="targetPoint" />
            <mxPoint x="408" y="602.5" as="sourcePoint" />
          </mxGeometry>
        </mxCell>
        <mxCell id="YUoRcWpAGlaLDNLX_Gaq-15" value="" style="edgeStyle=orthogonalEdgeStyle;html=1;verticalAlign=bottom;endArrow=open;endSize=8;strokeColor=#ff0000;rounded=0;entryX=1;entryY=0.5;entryDx=0;entryDy=0;exitX=1;exitY=0.5;exitDx=0;exitDy=0;" edge="1" parent="1" source="YUoRcWpAGlaLDNLX_Gaq-11" target="YUoRcWpAGlaLDNLX_Gaq-12">
          <mxGeometry relative="1" as="geometry">
            <mxPoint x="474" y="632.5" as="targetPoint" />
            <mxPoint x="474" y="562.5" as="sourcePoint" />
            <Array as="points">
              <mxPoint x="484" y="562.5" />
              <mxPoint x="484" y="282.5" />
            </Array>
          </mxGeometry>
        </mxCell>
        <mxCell id="YUoRcWpAGlaLDNLX_Gaq-16" value="[nessun movimento insolito]" style="text;html=1;strokeColor=none;fillColor=none;align=center;verticalAlign=middle;whiteSpace=wrap;rounded=0;rotation=90;" vertex="1" parent="1">
          <mxGeometry x="408" y="407.5" width="175.5" height="30" as="geometry" />
        </mxCell>
        <mxCell id="YUoRcWpAGlaLDNLX_Gaq-17" value="[movimento&amp;nbsp;insolito]" style="text;html=1;strokeColor=none;fillColor=none;align=center;verticalAlign=middle;whiteSpace=wrap;rounded=0;rotation=90;" vertex="1" parent="1">
          <mxGeometry x="348" y="632.5" width="150" height="30" as="geometry" />
        </mxCell>
        <mxCell id="YUoRcWpAGlaLDNLX_Gaq-18" value="Segnala ai colleghi" style="rounded=1;whiteSpace=wrap;html=1;" vertex="1" parent="1">
          <mxGeometry x="348" y="702.5" width="120" height="60" as="geometry" />
        </mxCell>
        <mxCell id="YUoRcWpAGlaLDNLX_Gaq-19" value="" style="edgeStyle=orthogonalEdgeStyle;html=1;verticalAlign=bottom;endArrow=open;endSize=8;strokeColor=#ff0000;rounded=0;entryX=0.5;entryY=0;entryDx=0;entryDy=0;" edge="1" parent="1">
          <mxGeometry relative="1" as="geometry">
            <mxPoint x="407" y="832.5" as="targetPoint" />
            <mxPoint x="407" y="762.5" as="sourcePoint" />
          </mxGeometry>
        </mxCell>
        <mxCell id="YUoRcWpAGlaLDNLX_Gaq-23" value="" style="html=1;points=[];perimeter=orthogonalPerimeter;fillColor=#000000;strokeColor=none;rotation=-90;" vertex="1" parent="1">
          <mxGeometry x="406.13" y="656.88" width="5" height="351.25" as="geometry" />
        </mxCell>
        <mxCell id="YUoRcWpAGlaLDNLX_Gaq-25" value="" style="edgeStyle=orthogonalEdgeStyle;html=1;verticalAlign=bottom;endArrow=open;endSize=8;strokeColor=#ff0000;rounded=0;" edge="1" parent="1">
          <mxGeometry relative="1" as="geometry">
            <mxPoint x="264" y="872.5" as="targetPoint" />
            <mxPoint x="264" y="832.5" as="sourcePoint" />
          </mxGeometry>
        </mxCell>
        <mxCell id="YUoRcWpAGlaLDNLX_Gaq-26" value="" style="edgeStyle=orthogonalEdgeStyle;html=1;verticalAlign=bottom;endArrow=open;endSize=8;strokeColor=#ff0000;rounded=0;" edge="1" parent="1">
          <mxGeometry relative="1" as="geometry">
            <mxPoint x="569.5" y="872.5" as="targetPoint" />
            <mxPoint x="569.5" y="832.5" as="sourcePoint" />
          </mxGeometry>
        </mxCell>
        <mxCell id="YUoRcWpAGlaLDNLX_Gaq-27" value="Interviene tempestivamente" style="rounded=1;whiteSpace=wrap;html=1;" vertex="1" parent="1">
          <mxGeometry x="214" y="872.5" width="110" height="50" as="geometry" />
        </mxCell>
        <mxCell id="YUoRcWpAGlaLDNLX_Gaq-29" value="" style="edgeStyle=orthogonalEdgeStyle;html=1;verticalAlign=bottom;endArrow=open;endSize=8;strokeColor=#ff0000;rounded=0;exitX=0.455;exitY=1.067;exitDx=0;exitDy=0;exitPerimeter=0;entryX=1.667;entryY=0.09;entryDx=0;entryDy=0;entryPerimeter=0;" edge="1" parent="1" source="YUoRcWpAGlaLDNLX_Gaq-27" target="YUoRcWpAGlaLDNLX_Gaq-31">
          <mxGeometry relative="1" as="geometry">
            <mxPoint x="263" y="952.5" as="targetPoint" />
            <mxPoint x="263" y="932.5" as="sourcePoint" />
          </mxGeometry>
        </mxCell>
        <mxCell id="YUoRcWpAGlaLDNLX_Gaq-31" value="" style="html=1;points=[];perimeter=orthogonalPerimeter;fillColor=#000000;strokeColor=none;rotation=-90;" vertex="1" parent="1">
          <mxGeometry x="405.5" y="800" width="5" height="350" as="geometry" />
        </mxCell>
        <mxCell id="YUoRcWpAGlaLDNLX_Gaq-32" value="" style="edgeStyle=orthogonalEdgeStyle;html=1;verticalAlign=bottom;endArrow=open;endSize=8;strokeColor=#ff0000;rounded=0;" edge="1" parent="1">
          <mxGeometry relative="1" as="geometry">
            <mxPoint x="410" y="1012.5" as="targetPoint" />
            <mxPoint x="410" y="972.5" as="sourcePoint" />
          </mxGeometry>
        </mxCell>
        <mxCell id="YUoRcWpAGlaLDNLX_Gaq-34" value="Registrazione accadduto" style="rounded=1;whiteSpace=wrap;html=1;" vertex="1" parent="1">
          <mxGeometry x="348" y="1012.5" width="120" height="60" as="geometry" />
        </mxCell>
        <mxCell id="YUoRcWpAGlaLDNLX_Gaq-35" value="" style="edgeStyle=orthogonalEdgeStyle;html=1;verticalAlign=bottom;endArrow=open;endSize=8;strokeColor=#ff0000;rounded=0;" edge="1" parent="1">
          <mxGeometry relative="1" as="geometry">
            <mxPoint x="410" y="1112.5" as="targetPoint" />
            <mxPoint x="410" y="1072.5" as="sourcePoint" />
          </mxGeometry>
        </mxCell>
        <mxCell id="YUoRcWpAGlaLDNLX_Gaq-36" value="" style="edgeStyle=orthogonalEdgeStyle;html=1;verticalAlign=bottom;endArrow=open;endSize=8;strokeColor=#ff0000;rounded=0;" edge="1" parent="1">
          <mxGeometry relative="1" as="geometry">
            <mxPoint x="204" y="1108.5" as="targetPoint" />
            <mxPoint x="204" y="432.5" as="sourcePoint" />
          </mxGeometry>
        </mxCell>
        <mxCell id="YUoRcWpAGlaLDNLX_Gaq-38" value="" style="html=1;points=[];perimeter=orthogonalPerimeter;fillColor=#000000;strokeColor=none;rotation=-90;fontStyle=1" vertex="1" parent="1">
          <mxGeometry x="410" y="862.5" width="5" height="505" as="geometry" />
        </mxCell>
        <mxCell id="YUoRcWpAGlaLDNLX_Gaq-39" value="" style="edgeStyle=orthogonalEdgeStyle;html=1;verticalAlign=bottom;endArrow=open;endSize=8;strokeColor=#ff0000;rounded=0;exitX=0.667;exitY=0.484;exitDx=0;exitDy=0;exitPerimeter=0;entryX=1;entryY=0.939;entryDx=0;entryDy=0;entryPerimeter=0;" edge="1" parent="1" source="YUoRcWpAGlaLDNLX_Gaq-56" target="YUoRcWpAGlaLDNLX_Gaq-38">
          <mxGeometry relative="1" as="geometry">
            <mxPoint x="637" y="1108.5" as="targetPoint" />
            <mxPoint x="624" y="302.5" as="sourcePoint" />
            <Array as="points">
              <mxPoint x="634" y="441.5" />
            </Array>
          </mxGeometry>
        </mxCell>
        <mxCell id="YUoRcWpAGlaLDNLX_Gaq-40" value="" style="ellipse;html=1;shape=endState;fillColor=#000000;strokeColor=#ff0000;" vertex="1" parent="1">
          <mxGeometry x="393.63" y="1162.5" width="30" height="30" as="geometry" />
        </mxCell>
        <mxCell id="YUoRcWpAGlaLDNLX_Gaq-41" value="" style="edgeStyle=orthogonalEdgeStyle;html=1;verticalAlign=bottom;endArrow=open;endSize=8;strokeColor=#ff0000;rounded=0;" edge="1" parent="1">
          <mxGeometry relative="1" as="geometry">
            <mxPoint x="408" y="1162.5" as="targetPoint" />
            <mxPoint x="408" y="1122.5" as="sourcePoint" />
          </mxGeometry>
        </mxCell>
        <mxCell id="YUoRcWpAGlaLDNLX_Gaq-43" value="Presenzia agli ingressi in sala e alle pause" style="rounded=1;whiteSpace=wrap;html=1;" vertex="1" parent="1">
          <mxGeometry x="194" y="282.5" width="120" height="60" as="geometry" />
        </mxCell>
        <mxCell id="YUoRcWpAGlaLDNLX_Gaq-44" value="" style="html=1;points=[];perimeter=orthogonalPerimeter;fillColor=#000000;strokeColor=none;rotation=-90;" vertex="1" parent="1">
          <mxGeometry x="185.25" y="141.25" width="5" height="182.5" as="geometry" />
        </mxCell>
        <mxCell id="YUoRcWpAGlaLDNLX_Gaq-45" value="" style="edgeStyle=orthogonalEdgeStyle;html=1;verticalAlign=bottom;endArrow=open;endSize=8;strokeColor=#ff0000;rounded=0;exitX=0.167;exitY=0.1;exitDx=0;exitDy=0;exitPerimeter=0;entryX=0.5;entryY=0;entryDx=0;entryDy=0;" edge="1" parent="1" source="YUoRcWpAGlaLDNLX_Gaq-44" target="YUoRcWpAGlaLDNLX_Gaq-8">
          <mxGeometry relative="1" as="geometry">
            <mxPoint x="114" y="262.5" as="targetPoint" />
            <mxPoint x="114" y="239.5" as="sourcePoint" />
            <Array as="points">
              <mxPoint x="115" y="262.5" />
              <mxPoint x="114" y="262.5" />
            </Array>
          </mxGeometry>
        </mxCell>
        <mxCell id="YUoRcWpAGlaLDNLX_Gaq-46" value="" style="edgeStyle=orthogonalEdgeStyle;html=1;verticalAlign=bottom;endArrow=open;endSize=8;strokeColor=#ff0000;rounded=0;" edge="1" parent="1">
          <mxGeometry relative="1" as="geometry">
            <mxPoint x="253.57999999999998" y="282.5" as="targetPoint" />
            <mxPoint x="254" y="232.5" as="sourcePoint" />
            <Array as="points">
              <mxPoint x="253.99999999999994" y="262.5" />
            </Array>
          </mxGeometry>
        </mxCell>
        <mxCell id="YUoRcWpAGlaLDNLX_Gaq-47" value="" style="html=1;points=[];perimeter=orthogonalPerimeter;fillColor=#000000;strokeColor=none;rotation=-90;" vertex="1" parent="1">
          <mxGeometry x="184" y="330" width="5" height="202.5" as="geometry" />
        </mxCell>
        <mxCell id="YUoRcWpAGlaLDNLX_Gaq-48" value="" style="edgeStyle=orthogonalEdgeStyle;html=1;verticalAlign=bottom;endArrow=open;endSize=8;strokeColor=#ff0000;rounded=0;exitX=0.5;exitY=1;exitDx=0;exitDy=0;" edge="1" parent="1" source="YUoRcWpAGlaLDNLX_Gaq-8">
          <mxGeometry relative="1" as="geometry">
            <mxPoint x="114" y="428.5" as="targetPoint" />
            <mxPoint x="64" y="412.5" as="sourcePoint" />
            <Array as="points">
              <mxPoint x="114" y="402.5" />
              <mxPoint x="114" y="402.5" />
            </Array>
          </mxGeometry>
        </mxCell>
        <mxCell id="YUoRcWpAGlaLDNLX_Gaq-50" value="" style="edgeStyle=orthogonalEdgeStyle;html=1;verticalAlign=bottom;endArrow=open;endSize=8;strokeColor=#ff0000;rounded=0;exitX=0.5;exitY=1;exitDx=0;exitDy=0;" edge="1" parent="1">
          <mxGeometry relative="1" as="geometry">
            <mxPoint x="253.58000000000004" y="428.5" as="targetPoint" />
            <mxPoint x="253.58000000000004" y="342.5" as="sourcePoint" />
            <Array as="points">
              <mxPoint x="253.58000000000004" y="402.5" />
              <mxPoint x="253.58000000000004" y="402.5" />
            </Array>
          </mxGeometry>
        </mxCell>
        <mxCell id="YUoRcWpAGlaLDNLX_Gaq-51" value="Ronda esterna" style="rounded=1;whiteSpace=wrap;html=1;" vertex="1" parent="1">
          <mxGeometry x="514" y="293.75" width="120" height="60" as="geometry" />
        </mxCell>
        <mxCell id="YUoRcWpAGlaLDNLX_Gaq-52" value="Sorveglianza nel parcheggio del &lt;br&gt;Drive-in" style="rounded=1;whiteSpace=wrap;html=1;" vertex="1" parent="1">
          <mxGeometry x="654" y="293.75" width="120" height="60" as="geometry" />
        </mxCell>
        <mxCell id="YUoRcWpAGlaLDNLX_Gaq-53" value="" style="html=1;points=[];perimeter=orthogonalPerimeter;fillColor=#000000;strokeColor=none;rotation=-90;" vertex="1" parent="1">
          <mxGeometry x="645.25" y="152.5" width="5" height="182.5" as="geometry" />
        </mxCell>
        <mxCell id="YUoRcWpAGlaLDNLX_Gaq-54" value="" style="edgeStyle=orthogonalEdgeStyle;html=1;verticalAlign=bottom;endArrow=open;endSize=8;strokeColor=#ff0000;rounded=0;exitX=-0.833;exitY=0.096;exitDx=0;exitDy=0;exitPerimeter=0;" edge="1" parent="1" source="YUoRcWpAGlaLDNLX_Gaq-53">
          <mxGeometry relative="1" as="geometry">
            <mxPoint x="573.5799999999999" y="293.75" as="targetPoint" />
            <mxPoint x="574" y="253.75" as="sourcePoint" />
            <Array as="points">
              <mxPoint x="574" y="273.75" />
            </Array>
          </mxGeometry>
        </mxCell>
        <mxCell id="YUoRcWpAGlaLDNLX_Gaq-55" value="" style="edgeStyle=orthogonalEdgeStyle;html=1;verticalAlign=bottom;endArrow=open;endSize=8;strokeColor=#ff0000;rounded=0;exitX=-0.833;exitY=0.096;exitDx=0;exitDy=0;exitPerimeter=0;" edge="1" parent="1">
          <mxGeometry relative="1" as="geometry">
            <mxPoint x="724" y="293.75" as="targetPoint" />
            <mxPoint x="724.42" y="250.75" as="sourcePoint" />
            <Array as="points">
              <mxPoint x="724.42" y="273.75" />
            </Array>
          </mxGeometry>
        </mxCell>
        <mxCell id="YUoRcWpAGlaLDNLX_Gaq-56" value="" style="html=1;points=[];perimeter=orthogonalPerimeter;fillColor=#000000;strokeColor=none;rotation=-90;" vertex="1" parent="1">
          <mxGeometry x="644" y="341.25" width="5" height="202.5" as="geometry" />
        </mxCell>
        <mxCell id="YUoRcWpAGlaLDNLX_Gaq-57" value="" style="edgeStyle=orthogonalEdgeStyle;html=1;verticalAlign=bottom;endArrow=open;endSize=8;strokeColor=#ff0000;rounded=0;exitX=0.5;exitY=1;exitDx=0;exitDy=0;" edge="1" parent="1" source="YUoRcWpAGlaLDNLX_Gaq-51">
          <mxGeometry relative="1" as="geometry">
            <mxPoint x="574" y="439.75" as="targetPoint" />
            <mxPoint x="524" y="423.75" as="sourcePoint" />
            <Array as="points">
              <mxPoint x="574" y="413.75" />
              <mxPoint x="574" y="413.75" />
            </Array>
          </mxGeometry>
        </mxCell>
        <mxCell id="YUoRcWpAGlaLDNLX_Gaq-58" value="" style="edgeStyle=orthogonalEdgeStyle;html=1;verticalAlign=bottom;endArrow=open;endSize=8;strokeColor=#ff0000;rounded=0;exitX=0.5;exitY=1;exitDx=0;exitDy=0;" edge="1" parent="1">
          <mxGeometry relative="1" as="geometry">
            <mxPoint x="713.58" y="439.75" as="targetPoint" />
            <mxPoint x="713.58" y="353.75" as="sourcePoint" />
            <Array as="points">
              <mxPoint x="713.58" y="413.75" />
              <mxPoint x="713.58" y="413.75" />
            </Array>
          </mxGeometry>
        </mxCell>
        <mxCell id="YUoRcWpAGlaLDNLX_Gaq-59" value="" style="endArrow=none;html=1;rounded=0;" edge="1" parent="1">
          <mxGeometry width="50" height="50" relative="1" as="geometry">
            <mxPoint x="334" y="1192.5" as="sourcePoint" />
            <mxPoint x="334" y="22.5" as="targetPoint" />
          </mxGeometry>
        </mxCell>
        <mxCell id="YUoRcWpAGlaLDNLX_Gaq-60" value="Interviene tempestivamente" style="rounded=1;whiteSpace=wrap;html=1;" vertex="1" parent="1">
          <mxGeometry x="514" y="872.5" width="110" height="50" as="geometry" />
        </mxCell>
        <mxCell id="YUoRcWpAGlaLDNLX_Gaq-61" value="" style="edgeStyle=orthogonalEdgeStyle;html=1;verticalAlign=bottom;endArrow=open;endSize=8;strokeColor=#ff0000;rounded=0;exitX=0.455;exitY=1.067;exitDx=0;exitDy=0;exitPerimeter=0;entryX=1;entryY=0.926;entryDx=0;entryDy=0;entryPerimeter=0;" edge="1" parent="1">
          <mxGeometry relative="1" as="geometry">
            <mxPoint x="568.4699999999998" y="972.5" as="targetPoint" />
            <mxPoint x="568.5799999999999" y="922.5" as="sourcePoint" />
            <Array as="points">
              <mxPoint x="568" y="932.5" />
              <mxPoint x="568" y="932.5" />
            </Array>
          </mxGeometry>
        </mxCell>
        <mxCell id="YUoRcWpAGlaLDNLX_Gaq-62" value="" style="endArrow=none;html=1;rounded=0;" edge="1" parent="1">
          <mxGeometry width="50" height="50" relative="1" as="geometry">
            <mxPoint x="504" y="1192.5" as="sourcePoint" />
            <mxPoint x="504" y="22.5" as="targetPoint" />
          </mxGeometry>
        </mxCell>
        <mxCell id="YUoRcWpAGlaLDNLX_Gaq-63" value="Addetto alle telecamere di sicurezza" style="text;html=1;strokeColor=none;fillColor=none;align=center;verticalAlign=middle;whiteSpace=wrap;rounded=0;" vertex="1" parent="1">
          <mxGeometry x="350.25" y="22.5" width="141.5" height="30" as="geometry" />
        </mxCell>
        <mxCell id="YUoRcWpAGlaLDNLX_Gaq-64" value="Addetto all&#39;area interna" style="text;html=1;strokeColor=none;fillColor=none;align=center;verticalAlign=middle;whiteSpace=wrap;rounded=0;" vertex="1" parent="1">
          <mxGeometry x="134" y="22.5" width="141.5" height="30" as="geometry" />
        </mxCell>
        <mxCell id="YUoRcWpAGlaLDNLX_Gaq-65" value="Addetto all&#39;area esterna" style="text;html=1;strokeColor=none;fillColor=none;align=center;verticalAlign=middle;whiteSpace=wrap;rounded=0;" vertex="1" parent="1">
          <mxGeometry x="554" y="22.5" width="141.5" height="30" as="geometry" />
        </mxCell>
      </root>
    </mxGraphModel>
  </diagram>
</mxfile>
